<svg width="398" height="471" viewBox="0 0 398 471" version="1.1" xmlns="http://www.w3.org/2000/svg" xmlns:xlink="http://www.w3.org/1999/xlink">
<title>Group 2</title>
<desc>Created using Figma</desc>
<g id="Canvas" transform="translate(-1742 -1159)">
<g id="Group 2">
<g id="Group">
<g id="anchor">
<g id="Vector">
<use xlink:href="#path0_fill" transform="translate(1742 1159)" fill="#E30B39"/>
</g>
</g>
</g>
<g id="bbnb">
<use xlink:href="#path1_fill" transform="translate(1838 1557)"/>
</g>
</g>
</g>
<defs>
<path id="path0_fill" d="M 8.33591 273.625L 30.7931 273.625C 45.9108 353.485 125.477 398 199 398C 272.643 398 352.107 353.396 367.207 273.625L 389.664 273.625C 397.076 273.625 400.787 263.577 395.546 257.701L 349.079 205.596C 345.83 201.954 340.563 201.954 337.313 205.596L 290.845 257.701C 285.605 263.578 289.316 273.625 296.728 273.625L 321.093 273.625C 307.027 315.848 262.192 340.934 221.183 346.707L 221.183 199L 257.233 199C 261.827 199 265.552 194.823 265.552 189.672L 265.552 158.578C 265.552 153.426 261.827 149.25 257.233 149.25L 221.183 149.25L 221.183 144.998C 247.029 134.754 265.548 107.122 265.552 74.6341C 265.556 34.0256 236.162 0.573354 199.95 0.00744744C 162.759 -0.574784 132.448 33.0562 132.448 74.6247C 132.448 107.116 150.969 134.752 176.816 144.998L 176.816 149.25L 140.767 149.25C 136.173 149.25 132.448 153.426 132.448 158.578L 132.448 189.672C 132.448 194.823 136.173 199 140.767 199L 176.816 199L 176.816 346.707C 135.959 340.955 90.9777 315.863 76.9068 273.625L 101.272 273.625C 108.683 273.625 112.395 263.577 107.154 257.701L 60.6861 205.596C 57.4375 201.954 52.1702 201.954 48.9209 205.596L 2.45298 257.701C -2.78731 263.577 0.924362 273.625 8.33591 273.625ZM 199 49.7497C 211.233 49.7497 221.184 60.9085 221.184 74.6247C 221.184 88.341 211.233 99.4998 199 99.4998C 186.768 99.4998 176.816 88.341 176.816 74.6247C 176.816 60.9085 186.768 49.7497 199 49.7497Z"/>
<path id="path1_fill" d="M 30.832 51.9609C 30.832 48.0234 30.2344 45.2109 29.0391 43.5234C 27.8438 41.8359 26.0039 40.9922 23.5195 40.9922C 22.418 40.9922 21.3164 41.168 20.2148 41.5195C 19.1367 41.8711 18.0703 42.3984 17.0156 43.1016L 17.0156 62.9297C 17.8359 63.2578 18.6562 63.4805 19.4766 63.5977C 20.3203 63.7148 21.1523 63.7734 21.9727 63.7734C 24.9492 63.7734 27.1641 62.7891 28.6172 60.8203C 30.0938 58.8516 30.832 55.8984 30.832 51.9609ZM 43.418 51.7148C 43.418 57.9961 41.8242 63.082 38.6367 66.9727C 35.4492 70.8398 31.5 72.7734 26.7891 72.7734C 24.8203 72.7734 23.1094 72.5508 21.6562 72.1055C 20.2031 71.6602 18.6562 70.9688 17.0156 70.0312L 16.4883 72L 4.71094 72L 4.71094 17.2969L 17.0156 17.2969L 17.0156 36.6328C 18.8203 35.0859 20.6602 33.832 22.5352 32.8711C 24.4102 31.9102 26.5781 31.4297 29.0391 31.4297C 33.6328 31.4297 37.1719 33.2227 39.6562 36.8086C 42.1641 40.3945 43.418 45.3633 43.418 51.7148ZM 76.3242 51.9609C 76.3242 48.0234 75.7266 45.2109 74.5312 43.5234C 73.3359 41.8359 71.4961 40.9922 69.0117 40.9922C 67.9102 40.9922 66.8086 41.168 65.707 41.5195C 64.6289 41.8711 63.5625 42.3984 62.5078 43.1016L 62.5078 62.9297C 63.3281 63.2578 64.1484 63.4805 64.9688 63.5977C 65.8125 63.7148 66.6445 63.7734 67.4648 63.7734C 70.4414 63.7734 72.6562 62.7891 74.1094 60.8203C 75.5859 58.8516 76.3242 55.8984 76.3242 51.9609ZM 88.9102 51.7148C 88.9102 57.9961 87.3164 63.082 84.1289 66.9727C 80.9414 70.8398 76.9922 72.7734 72.2812 72.7734C 70.3125 72.7734 68.6016 72.5508 67.1484 72.1055C 65.6953 71.6602 64.1484 70.9688 62.5078 70.0312L 61.9805 72L 50.2031 72L 50.2031 17.2969L 62.5078 17.2969L 62.5078 36.6328C 64.3125 35.0859 66.1523 33.832 68.0273 32.8711C 69.9023 31.9102 72.0703 31.4297 74.5312 31.4297C 79.125 31.4297 82.6641 33.2227 85.1484 36.8086C 87.6562 40.3945 88.9102 45.3633 88.9102 51.7148ZM 132.68 72L 120.305 72L 120.305 52.418C 120.305 50.8242 120.234 49.2422 120.094 47.6719C 119.977 46.0781 119.742 44.9062 119.391 44.1562C 118.969 43.2656 118.359 42.6328 117.562 42.2578C 116.766 41.8594 115.699 41.6602 114.363 41.6602C 113.355 41.6602 112.336 41.8477 111.305 42.2227C 110.273 42.5977 109.172 43.1953 108 44.0156L 108 72L 95.6953 72L 95.6953 32.5195L 108 32.5195L 108 36.8789C 110.016 35.168 111.973 33.832 113.871 32.8711C 115.793 31.9102 117.914 31.4297 120.234 31.4297C 124.266 31.4297 127.348 32.707 129.48 35.2617C 131.613 37.793 132.68 41.4727 132.68 46.3008L 132.68 72ZM 167.941 51.9609C 167.941 48.0234 167.344 45.2109 166.148 43.5234C 164.953 41.8359 163.113 40.9922 160.629 40.9922C 159.527 40.9922 158.426 41.168 157.324 41.5195C 156.246 41.8711 155.18 42.3984 154.125 43.1016L 154.125 62.9297C 154.945 63.2578 155.766 63.4805 156.586 63.5977C 157.43 63.7148 158.262 63.7734 159.082 63.7734C 162.059 63.7734 164.273 62.7891 165.727 60.8203C 167.203 58.8516 167.941 55.8984 167.941 51.9609ZM 180.527 51.7148C 180.527 57.9961 178.934 63.082 175.746 66.9727C 172.559 70.8398 168.609 72.7734 163.898 72.7734C 161.93 72.7734 160.219 72.5508 158.766 72.1055C 157.312 71.6602 155.766 70.9688 154.125 70.0312L 153.598 72L 141.82 72L 141.82 17.2969L 154.125 17.2969L 154.125 36.6328C 155.93 35.0859 157.77 33.832 159.645 32.8711C 161.52 31.9102 163.688 31.4297 166.148 31.4297C 170.742 31.4297 174.281 33.2227 176.766 36.8086C 179.273 40.3945 180.527 45.3633 180.527 51.7148Z"/>
</defs>
</svg>
