<svg width="398" height="398" viewBox="0 0 398 398" version="1.1" xmlns="http://www.w3.org/2000/svg" xmlns:xlink="http://www.w3.org/1999/xlink">
<title>Group</title>
<desc>Created using Figma</desc>
<g id="Canvas" transform="translate(-1742 -1091)">
<g id="Group">
<g id="Ellipse">
<use xlink:href="#path0_fill" transform="translate(1793 1156)" fill="#333333"/>
</g>
<g id="anchor">
<g id="Vector">
<use xlink:href="#path1_fill" transform="translate(1742 1091)" fill="#2979FF"/>
</g>
</g>
</g>
</g>
<defs>
<path id="path0_fill" d="M 294 147C 294 228.186 228.186 294 147 294C 65.8141 294 0 228.186 0 147C 0 65.8141 65.8141 0 147 0C 228.186 0 294 65.8141 294 147Z"/>
<path id="path1_fill" d="M 8.33591 273.625L 30.7931 273.625C 45.9108 353.485 125.477 398 199 398C 272.643 398 352.107 353.396 367.207 273.625L 389.664 273.625C 397.076 273.625 400.787 263.577 395.546 257.701L 349.079 205.596C 345.83 201.954 340.563 201.954 337.313 205.596L 290.845 257.701C 285.605 263.578 289.316 273.625 296.728 273.625L 321.093 273.625C 307.027 315.848 262.192 340.934 221.183 346.707L 221.183 199L 257.233 199C 261.827 199 265.552 194.823 265.552 189.672L 265.552 158.578C 265.552 153.426 261.827 149.25 257.233 149.25L 221.183 149.25L 221.183 144.998C 247.029 134.754 265.548 107.122 265.552 74.6341C 265.556 34.0256 236.162 0.573354 199.95 0.00744744C 162.759 -0.574784 132.448 33.0562 132.448 74.6247C 132.448 107.116 150.969 134.752 176.816 144.998L 176.816 149.25L 140.767 149.25C 136.173 149.25 132.448 153.426 132.448 158.578L 132.448 189.672C 132.448 194.823 136.173 199 140.767 199L 176.816 199L 176.816 346.707C 135.959 340.955 90.9777 315.863 76.9068 273.625L 101.272 273.625C 108.683 273.625 112.395 263.577 107.154 257.701L 60.6861 205.596C 57.4375 201.954 52.1702 201.954 48.9209 205.596L 2.45298 257.701C -2.78731 263.577 0.924362 273.625 8.33591 273.625ZM 199 49.7497C 211.233 49.7497 221.184 60.9085 221.184 74.6247C 221.184 88.341 211.233 99.4998 199 99.4998C 186.768 99.4998 176.816 88.341 176.816 74.6247C 176.816 60.9085 186.768 49.7497 199 49.7497Z"/>
</defs>
</svg>
