<?xml version="1.0" encoding="iso-8859-1"?>
<!-- Generator: Adobe Illustrator 16.0.0, SVG Export Plug-In . SVG Version: 6.00 Build 0)  -->
<!DOCTYPE svg PUBLIC "-//W3C//DTD SVG 1.1//EN" "http://www.w3.org/Graphics/SVG/1.1/DTD/svg11.dtd">
<svg xmlns="http://www.w3.org/2000/svg" xmlns:xlink="http://www.w3.org/1999/xlink" version="1.1" id="Capa_1" x="0px" y="0px" width="512px" height="512px" viewBox="0 0 559.482 559.482" style="enable-background:new 0 0 559.482 559.482;" xml:space="preserve">
<g>
	<g>
		<path d="M303.647,19.125C303.647,8.941,292.479,0,279.741,0s-23.906,8.941-23.906,19.125v76.5h47.812V19.125z" fill="#3d9cc4"/>
		<path d="M246.272,114.75h-55.96c-13.98,0-30.103,6.56-30.103,20.54v100.445l112.474-50.595l7.755-3.49l7.784,3.566l101.486,44.667    V135.29c0-13.98-6.56-20.54-20.54-20.54h-55.96h-9.562h-47.812H246.272z" fill="#3d9cc4"/>
		<polygon points="197.446,411.188 367.573,411.188 475.591,290.662 407.458,259.899 398.871,256.017 389.442,251.762     280.535,202.582 162.667,257.078 152.245,261.898 145.283,265.111 89.036,291.111   " fill="#3d9cc4"/>
		<path d="M45.46,454.295c9.562,0,19.775,5.977,29.003,15.023c10.557,10.346,23.725,23.227,49.094,23.227    c25.369,0,38.508-12.881,49.065-23.227c9.237-9.047,15.338-15.023,28.994-15.023c13.665,0,19.766,5.977,29.003,15.023    c10.557,10.346,23.706,23.227,49.075,23.227s38.508-12.881,49.065-23.227c9.237-9.047,15.338-15.023,28.993-15.023    c13.675,0,19.775,5.977,29.022,15.032c10.557,10.347,23.705,23.218,49.084,23.218s38.557-12.881,49.123-23.218    c9.237-9.056,19.479-15.032,29.041-15.032v-28.688c-28.688,0-38.556,12.871-49.113,23.218    c-9.247,9.047-15.376,15.032-29.051,15.032c-13.674,0-19.775-5.977-29.013-15.032c-7.459-7.306-16.304-15.778-29.739-20.187    c-5.594-1.836-11.896-3.031-19.364-3.031c-9.601,0-17.433,1.846-24.059,4.705c-10.883,4.686-18.446,12.087-25.016,18.522    c-9.237,9.046-15.339,15.022-28.994,15.022c-13.665,0-19.766-5.977-29.003-15.022c-6.57-6.436-14.143-13.837-25.025-18.522    c-6.617-2.85-14.458-4.705-24.059-4.705c-5.403,0-10.146,0.68-14.535,1.702c-16.218,3.768-26.23,13.378-34.54,21.525    c-9.228,9.046-15.338,15.022-28.994,15.022s-19.766-5.977-28.994-15.022c-10.538-10.347-20.377-23.228-49.065-23.228V454.295z" fill="#3d9cc4"/>
		<path d="M45.46,521.232c9.562,0,19.775,5.977,29.003,15.023c10.557,10.346,23.725,23.227,49.094,23.227    c25.369,0,38.508-12.881,49.065-23.227c9.237-9.047,15.338-15.023,28.994-15.023c13.665,0,19.766,5.977,29.003,15.023    c10.557,10.346,23.706,23.227,49.075,23.227s38.508-12.881,49.065-23.227c9.237-9.047,15.338-15.023,28.993-15.023    c13.675,0,19.775,5.977,29.022,15.032c10.557,10.347,23.705,23.218,49.084,23.218s38.557-12.881,49.123-23.218    c9.237-9.056,19.479-15.032,29.041-15.032v-28.688c-28.688,0-38.556,12.871-49.113,23.218    c-9.247,9.047-15.376,15.032-29.051,15.032c-13.674,0-19.775-5.977-29.013-15.032c-10.566-10.347-23.715-23.218-49.094-23.218    c-25.369,0-38.508,12.881-49.065,23.228c-9.237,9.046-15.338,15.022-28.993,15.022c-13.665,0-19.766-5.977-29.003-15.022    c-10.557-10.347-23.706-23.228-49.084-23.228c-25.369,0-38.518,12.881-49.075,23.228c-9.228,9.046-15.338,15.022-28.994,15.022    s-19.766-5.977-28.993-15.022c-10.557-10.347-20.397-23.228-49.084-23.228V521.232z" fill="#3d9cc4"/>
	</g>
</g>
<g>
</g>
<g>
</g>
<g>
</g>
<g>
</g>
<g>
</g>
<g>
</g>
<g>
</g>
<g>
</g>
<g>
</g>
<g>
</g>
<g>
</g>
<g>
</g>
<g>
</g>
<g>
</g>
<g>
</g>
</svg>
