<?xml version="1.0" encoding="iso-8859-1"?>
<!-- Generator: Adobe Illustrator 19.0.0, SVG Export Plug-In . SVG Version: 6.00 Build 0)  -->
<svg version="1.1" id="Capa_1" xmlns="http://www.w3.org/2000/svg" xmlns:xlink="http://www.w3.org/1999/xlink" x="0px" y="0px"
	 viewBox="0 0 449.306 449.306" style="enable-background:new 0 0 449.306 449.306;" xml:space="preserve">
<path style="fill:#1185E0;" d="M433.633,398.464c-6.269,0-8.882-2.09-15.151-8.359c-6.792-6.792-16.196-15.673-32.914-17.241
	l36.049-79.412c2.09-4.702,1.567-10.449-1.045-15.151c-3.135-4.702-7.837-7.314-13.061-7.314H245.029v-21.42H360.49
	c5.747,0,10.971-3.135,13.584-8.359s2.612-11.494-0.522-16.196L242.416,26.48c-3.657-5.747-10.971-8.359-17.763-6.269
	c-6.792,2.09-10.971,7.837-10.971,15.151v235.624H42.841c-5.224,0-10.449,2.612-13.061,7.314
	c-3.135,4.702-3.135,10.449-1.045,15.151l37.094,79.412c-17.763,0.522-27.69,9.927-35.004,17.241
	c-6.269,6.269-8.882,8.359-15.151,8.359C6.792,398.464,0,405.255,0,414.137c0,8.882,6.792,15.673,15.673,15.673
	c19.331,0,29.78-9.927,37.094-17.241c6.269-6.269,8.882-8.359,15.151-8.359s8.882,2.09,15.151,8.359
	c7.314,7.314,17.763,17.241,37.094,17.241s29.78-9.927,37.094-17.241c6.269-6.269,8.882-8.359,15.151-8.359s8.882,2.09,15.151,8.359
	c7.314,7.314,17.763,17.241,37.094,17.241s29.78-9.927,37.094-17.241c6.269-6.269,8.882-8.359,15.151-8.359
	c6.269,0,8.882,2.09,15.151,8.359c7.314,7.314,17.763,17.241,37.094,17.241s29.78-9.927,37.094-17.241
	c6.269-6.269,8.882-8.359,15.151-8.359s8.882,2.09,15.151,8.359c7.314,7.314,17.763,17.241,37.094,17.241
	c8.882,0,15.673-6.792,15.673-15.673C449.306,405.255,442.514,398.464,433.633,398.464z M245.029,88.129l86.204,130.612h-86.204
	V88.129z M313.992,390.104c-7.314-7.314-17.763-17.241-37.094-17.241c-19.331,0-29.78,9.927-37.094,17.241
	c-6.269,6.269-8.882,8.359-15.151,8.359c-6.269,0-8.882-2.09-15.151-8.359c-7.314-7.314-17.763-17.241-37.094-17.241
	s-29.78,9.927-37.094,17.241c-6.269,6.269-8.882,8.359-15.151,8.359c-4.18,0-6.269-1.045-9.404-3.135l-43.363-92.473h315.559
	l-40.229,88.816c-5.224,5.224-7.837,6.792-13.584,6.792C322.873,398.464,320.261,396.374,313.992,390.104z"/>
<path style="fill:#4DCFE0;" d="M178.678,251.133H93.518c-5.747,0-10.971-3.135-13.584-7.837c-2.612-5.224-2.612-10.971,0.522-15.673
	l85.159-136.359c3.657-5.747,10.971-8.882,17.763-6.792c6.792,2.09,11.494,7.837,11.494,15.151v135.837
	C194.351,244.341,187.559,251.133,178.678,251.133z M121.731,219.786h41.273v-65.829L121.731,219.786z"/>
<g>
</g>
<g>
</g>
<g>
</g>
<g>
</g>
<g>
</g>
<g>
</g>
<g>
</g>
<g>
</g>
<g>
</g>
<g>
</g>
<g>
</g>
<g>
</g>
<g>
</g>
<g>
</g>
<g>
</g>
</svg>
