<?xml version="1.0" encoding="iso-8859-1"?>
<!-- Generator: Adobe Illustrator 18.0.0, SVG Export Plug-In . SVG Version: 6.00 Build 0)  -->
<!DOCTYPE svg PUBLIC "-//W3C//DTD SVG 1.1//EN" "http://www.w3.org/Graphics/SVG/1.1/DTD/svg11.dtd">
<svg xmlns="http://www.w3.org/2000/svg" xmlns:xlink="http://www.w3.org/1999/xlink" version="1.1" id="Capa_1" x="0px" y="0px" viewBox="0 0 448.509 448.509" style="enable-background:new 0 0 448.509 448.509;" xml:space="preserve" width="512px" height="512px">
<g>
	<path style="stroke-width:0;stroke-linecap:round;stroke-linejoin:round;" d="M131.897,304.839l0.031,0.01   c18.194,5.074,40.748,10.711,64.281,13.142c-2.14-0.667-4.271-1.352-6.386-2.067c-23.418-7.123-45.463-11.478-66.837-13.188   c2.976,0.62,5.938,1.308,8.879,2.096L131.897,304.839z" stroke="#3d9cc4" fill="#3d9cc4"/>
	<path style="stroke-width:0;stroke-linecap:round;stroke-linejoin:round;" d="M218.874,325.635   c-29.414,0-59.245-6.4-88.67-14.608c-13.166-3.529-26.702-5.301-40.198-5.301c-31.157,0.002-62.073,9.451-87.52,28.541   c24.656-10.414,48.674-15.175,72.858-15.174c21.1,0.001,42.328,3.626,64.191,10.285c19.7,6.68,41.592,10.487,63.451,10.487   c19.407,0,38.783-3.009,56.564-9.672c-11.274-0.897-22.564-2.472-33.714-4.685C223.519,325.591,221.198,325.635,218.874,325.635z" stroke="#3d9cc4" fill="#3d9cc4"/>
	<path style="stroke-width:0;stroke-linecap:round;stroke-linejoin:round;" d="M55.73,275.509   c21.562-6.916,44.19-10.424,67.259-10.424c19.83,0,39.619,2.609,58.818,7.755l0.044,0.012l0.044,0.013   c33.709,9.403,78.059,20.197,122.183,20.197c24.009,0,46.249-3.142,67.126-9.516l77.305-148.528   c0,0-162.357-16.376-446.022,122.976v40.647h4.136C21.786,288.883,38.244,281.119,55.73,275.509z M335.859,198.788   c1.912-8.549,9.36-15.305,16.634-15.093c7.272,0.214,11.616,7.315,9.702,15.866c-1.913,8.549-9.358,15.307-16.633,15.095   C338.289,214.442,333.944,207.338,335.859,198.788z" stroke="#3d9cc4" fill="#3d9cc4"/>
	<path style="stroke-width:0;stroke-linecap:round;stroke-linejoin:round;" d="M115.249,194.657   c0,0,93.771-44.118,203.884-60.232c0,0-72.262-23.427-214.207,24.963L115.249,194.657z" stroke="#3d9cc4" fill="#3d9cc4"/>
	<path style="stroke-width:0;stroke-linecap:round;stroke-linejoin:round;" d="M256.333,121.643   c0,0-80.949-24.97-163.452-5.699l10.324,32.27C103.206,148.214,170.331,122.975,256.333,121.643z" stroke="#3d9cc4" fill="#3d9cc4"/>
	<path style="stroke-width:0;stroke-linecap:round;stroke-linejoin:round;" d="M179.473,281.549   c-18.498-4.958-37.523-7.447-56.486-7.447C79.2,274.102,35.761,287.381,0,314.21c34.646-14.636,68.398-21.326,102.382-21.324   c29.65,0.001,59.48,5.096,90.203,14.453c27.683,9.387,58.448,14.738,89.165,14.738c50.848,0,101.552-14.673,137.842-50   c-37.337,21.854-76.165,30.001-115.514,30.001C262.74,302.078,220.827,293.086,179.473,281.549z" stroke="#3d9cc4" fill="#3d9cc4"/>
</g>
<g>
</g>
<g>
</g>
<g>
</g>
<g>
</g>
<g>
</g>
<g>
</g>
<g>
</g>
<g>
</g>
<g>
</g>
<g>
</g>
<g>
</g>
<g>
</g>
<g>
</g>
<g>
</g>
<g>
</g>
</svg>
